<?xml version="1.0"?>
<svg xmlns="http://www.w3.org/2000/svg" xmlnsXlink="http://www.w3.org/1999/xlink" xmlnsSvgjs="http://svgjs.com/svgjs" version="1.1" width="512" height="512" x="0" y="0" viewBox="0 0 100 100" style="enable-background:new 0 0 512 512" xmlSpace="preserve" class=""><g><path xmlns="http://www.w3.org/2000/svg" id="Silent" d="m56 8h-1.107c-1.86 0-3.645.562-5.162 1.626l-27.677 19.374h-11.054c-4.963 0-9 4.037-9 9v24c0 4.963 4.037 9 9 9h11.054l27.673 19.373c1.521 1.065 3.305 1.627 5.166 1.627h1.107c4.963 0 9-4.037 9-9v-66c0-4.963-4.037-9-9-9zm-36 57h-9c-1.655 0-3-1.346-3-3v-24c0-1.654 1.345-3 3-3h9zm39 18c0 1.654-1.345 3-3 3h-1.107c-.621 0-1.216-.188-1.723-.542l-27.17-19.02v-32.876l27.173-19.021c.504-.353 1.098-.541 1.72-.541h1.107c1.655 0 3 1.346 3 3zm38.121-26.121c1.172 1.172 1.172 3.07 0 4.242-.586.586-1.353.879-2.121.879s-1.535-.293-2.121-.879l-6.879-6.879-6.879 6.879c-.586.586-1.353.879-2.121.879s-1.535-.293-2.121-.879c-1.172-1.172-1.172-3.07 0-4.242l6.879-6.879-6.879-6.879c-1.172-1.172-1.172-3.07 0-4.242s3.07-1.172 4.242 0l6.879 6.879 6.879-6.879c1.172-1.172 3.07-1.172 4.242 0s1.172 3.07 0 4.242l-6.879 6.879z" fill="#ffffff" data-original="#000000" class=""/></g></svg>
